# xmcd
#
# Track frame offsets:
#	150
#	17071
#	34542
#	44130
#	66300
#	88200
#	110549
#	125430
#	143554
#	164552
#	188847
#	202429
#
# Disc length: 2999 seconds
#
# Revision: 1
# Processed by: cddbd v1.4PL0 Copyright (c) Steve Scherf et al.
# Submitted via: audiograbber 1.81.03
#
DISCID=b60bb50c
DTITLE=Bubba and The Big Bad Blues - Bubba and The Big Bad Blues
DYEAR=2002
DGENRE=Blues
TTITLE0=Big Bad Blues
TTITLE1=I Got The Loving You Need
TTITLE2=C O D
TTITLE3=Black Clouds
TTITLE4=Just Lucky I Guess
TTITLE5=Down To The Ground
TTITLE6=It Hurts Me Too
TTITLE7=Gimme Some Beads
TTITLE8=Big Leg Woman
TTITLE9=Built For Built
TTITLE10=Fat City
TTITLE11=Stranger Blues
EXTD=
EXTT0=
EXTT1=
EXTT2=
EXTT3=
EXTT4=
EXTT5=
EXTT6=
EXTT7=
EXTT8=
EXTT9=
EXTT10=
EXTT11=
PLAYORDER=
